<svg preserveAspectRatio="xMidYMid meet" width="100%" height="100%" overflow="visible" style="display: block;" viewBox="0 0 430.994 466" fill="none" xmlns="http://www.w3.org/2000/svg">
<g id="Group 9428">
<path id="Vector" d="M309.827 167.293L430.969 167.293V272.218C430.969 299.405 426.821 325.042 418.55 349.206C410.279 373.344 397.285 394.459 379.594 412.551C361.902 430.642 343.336 443.336 323.92 450.633C296.933 460.878 264.524 466 226.692 466C204.802 466 180.939 464.426 155.076 461.302C129.213 458.154 107.574 451.957 90.207 442.636C72.8153 433.341 56.9229 420.122 42.5047 402.98C28.0866 385.838 18.2163 368.172 12.8939 349.981C4.29796 320.72 0 294.807 0 272.218L0 167.842H121.142L121.142 278.74C121.142 303.828 134.086 362.1 215.622 361.175C297.158 360.251 309.802 304.227 309.802 278.74V167.268L309.827 167.293Z" fill="var(--fill-0, #245283)" fill-opacity="0.08"/>
<path id="Vector_2" d="M58.3476 116.594C90.5442 116.594 116.645 90.4938 116.645 58.2972C116.645 26.1005 90.5442 0 58.3476 0C26.1509 0 0.0503793 26.1005 0.0503793 58.2972C0.0503793 90.4938 26.1509 116.594 58.3476 116.594Z" fill="var(--fill-0, #245283)" fill-opacity="0.08"/>
<path id="Vector_3" d="M372.697 116.594C404.893 116.594 430.994 90.4938 430.994 58.2972C430.994 26.1005 404.893 0 372.697 0C340.5 0 314.4 26.1005 314.4 58.2972C314.4 90.4938 340.5 116.594 372.697 116.594Z" fill="var(--fill-0, #245283)" fill-opacity="0.08"/>
</g>
</svg>
