<svg preserveAspectRatio="none" width="100%" height="100%" overflow="visible" style="display: block;" viewBox="0 0 674.805 283" fill="none" xmlns="http://www.w3.org/2000/svg">
<g id="Credibility Section">
<path id="Vector" d="M244.497 238.43L111.908 238.43L95.5354 277.49L0 277.49L122.495 1.00122L232.359 1.00122L354.835 277.49L260.322 277.49L244.515 238.43L244.497 238.43ZM219.856 175.499L177.418 71.8079L134.195 175.499L219.837 175.499L219.856 175.499Z" fill="var(--fill-0, #245283)" fill-opacity="0.2"/>
<path id="Vector_2" d="M586.301 101.598L674.79 101.598L674.79 165.318C674.79 181.829 671.76 197.398 665.719 212.072C659.677 226.731 650.186 239.554 637.263 250.541C624.34 261.528 610.778 269.237 596.595 273.668C576.882 279.89 553.208 283 525.573 283C509.584 283 492.152 282.044 473.261 280.148C454.369 278.235 438.562 274.472 425.876 268.812C413.172 263.167 401.564 255.139 391.032 244.729C380.5 234.319 373.29 223.59 369.402 212.543C363.123 194.773 359.984 179.036 359.984 165.318L359.984 101.932L448.473 101.932L448.473 169.279C448.473 184.515 457.928 219.903 517.487 219.341C577.046 218.78 586.282 184.757 586.282 169.279L586.282 101.583L586.301 101.598Z" fill="var(--fill-0, #245283)" fill-opacity="0.2"/>
<path id="Vector_3" d="M402.6 70.8067C426.119 70.8067 445.184 54.9561 445.184 35.4034C445.184 15.8507 426.119 4.03749e-05 402.6 4.05483e-05C379.082 4.07216e-05 360.016 15.8507 360.016 35.4034C360.016 54.9561 379.082 70.8067 402.6 70.8067Z" fill="var(--fill-0, #245283)" fill-opacity="0.2"/>
<path id="Vector_4" d="M632.221 70.8067C655.739 70.8067 674.805 54.9561 674.805 35.4033C674.805 15.8506 655.739 -1.73347e-07 632.221 0C608.702 1.73348e-07 589.637 15.8506 589.637 35.4033C589.637 54.9561 608.702 70.8067 632.221 70.8067Z" fill="var(--fill-0, #245283)" fill-opacity="0.2"/>
</g>
</svg>
