<svg preserveAspectRatio="none" width="100%" height="100%" overflow="visible" style="display: block;" viewBox="0 0 264.007 183" fill="none" xmlns="http://www.w3.org/2000/svg">
<g id="FAQ Section Decoration">
<path id="Vector" d="M189.797 0.0153471H264.007V64.2911C264.007 80.9456 261.466 96.651 256.399 111.453C251.332 126.24 243.372 139.175 232.535 150.258C221.697 161.34 210.324 169.116 198.43 173.586C181.898 179.862 162.044 183 138.869 183C125.459 183 110.841 182.036 94.9977 180.122C79.1546 178.194 65.8984 174.397 55.2597 168.688C44.6058 162.993 34.8703 154.896 26.0379 144.395C17.2055 133.894 11.1591 123.072 7.89863 111.928C2.63288 94.0028 0 78.129 0 64.2911L0 0.352112H74.2103V68.2864C74.2103 83.655 82.1395 119.352 132.088 118.785C182.036 118.219 189.781 83.8999 189.781 68.2864V4.80959e-05L189.797 0.0153471Z" fill="var(--fill-0, #245283)" fill-opacity="0.2"/>
</g>
</svg>
