<svg preserveAspectRatio="none" width="100%" height="100%" overflow="visible" style="display: block;" viewBox="0 0 347.755 376" fill="none" xmlns="http://www.w3.org/2000/svg">
<g id="FAQ Section Decoration">
<path id="Vector" d="M249.989 134.983H347.735V219.643C347.735 241.58 344.388 262.266 337.714 281.763C331.041 301.239 320.556 318.276 306.282 332.874C292.007 347.471 277.027 357.713 261.361 363.6C239.586 371.867 213.435 376 182.91 376C165.248 376 145.993 374.73 125.126 372.21C104.258 369.669 86.7976 364.669 72.785 357.149C58.7522 349.648 45.9292 338.983 34.2957 325.151C22.6622 311.32 14.6981 297.066 10.4036 282.388C3.46788 258.778 0 237.87 0 219.643L0 135.427H97.7456L97.7456 224.906C97.7456 245.148 108.19 292.166 173.978 291.42C239.767 290.674 249.969 245.471 249.969 224.906V134.963L249.989 134.983Z" fill="var(--fill-0, #245283)" fill-opacity="0.2"/>
<path id="Vector_2" d="M47.0788 94.0761C73.0572 94.0761 94.1169 73.0165 94.1169 47.0381C94.1169 21.0597 73.0572 0 47.0788 0C21.1004 0 0.0407296 21.0597 0.0407296 47.0381C0.0407296 73.0165 21.1004 94.0761 47.0788 94.0761Z" fill="var(--fill-0, #245283)" fill-opacity="0.2"/>
<path id="Vector_3" d="M300.717 94.0761C326.695 94.0761 347.755 73.0165 347.755 47.0381C347.755 21.0597 326.695 0 300.717 0C274.738 0 253.679 21.0597 253.679 47.0381C253.679 73.0165 274.738 94.0761 300.717 94.0761Z" fill="var(--fill-0, #245283)" fill-opacity="0.2"/>
</g>
</svg>
