<svg preserveAspectRatio="none" width="100%" height="100%" overflow="visible" style="display: block;" viewBox="0 0 1157 190.703" fill="none" xmlns="http://www.w3.org/2000/svg">
<g id="Group 9425">
<path id="Vector" d="M138.488 160.669L63.3869 160.669L54.113 186.99L0 186.99L69.3834 0.674691L131.612 0.674691L200.985 186.99L147.451 186.99L138.498 160.669L138.488 160.669ZM124.53 118.262L100.493 48.3887L76.0105 118.262L124.52 118.262L124.53 118.262Z" fill="var(--fill-0, #245283)" fill-opacity="0.2"/>
<path id="Vector_2" d="M332.051 68.4632L382.173 68.4632L382.173 111.402C382.173 122.527 380.457 133.019 377.034 142.908C373.612 152.786 368.236 161.427 360.916 168.83C353.597 176.234 345.915 181.429 337.882 184.414C326.716 188.607 313.306 190.703 297.654 190.703C288.597 190.703 278.723 190.059 268.023 188.781C257.322 187.492 248.369 184.956 241.183 181.142C233.987 177.338 227.412 171.929 221.447 164.914C215.481 157.899 211.397 150.669 209.195 143.225C205.639 131.25 203.86 120.646 203.86 111.402L203.86 68.6881L253.983 68.6881L253.983 114.071C253.983 124.337 259.338 148.184 293.073 147.806C326.809 147.427 332.04 124.501 332.04 114.071L332.04 68.453L332.051 68.4632Z" fill="var(--fill-0, #245283)" fill-opacity="0.2"/>
<path id="Vector_3" d="M413.435 0.675156L504.674 0.675156C522.653 0.675156 596.317 14.6744 596.317 92.9433C596.317 176.039 515.602 186.479 504.674 186.479L413.435 186.479L413.435 0.675156ZM462.637 42.816L462.637 144.339L483.521 144.339C501.324 144.339 545.595 140.647 545.595 94.15C545.595 44.7896 505.966 42.816 483.893 42.816L462.637 42.816Z" fill="var(--fill-0, #245283)" fill-opacity="0.2"/>
<path id="Vector_4" d="M618.63 0.674664L667.48 0.674664L667.48 186.479L618.63 186.479L618.63 0.674664Z" fill="var(--fill-0, #245283)" fill-opacity="0.2"/>
<path id="Vector_5" d="M678.128 0.675144L733.544 0.675144L780.513 136.863L827.047 0.675144L882.122 0.675144L812.242 186.479L749.207 186.479L678.128 0.675144Z" fill="var(--fill-0, #245283)" fill-opacity="0.2"/>
<path id="Vector_6" d="M1094.5 160.669L1019.4 160.669L1010.13 186.991L956.015 186.991L1025.4 0.674932L1087.63 0.674932L1157 186.991L1103.47 186.991L1094.51 160.669L1094.5 160.669ZM1080.54 118.262L1056.51 48.3889L1032.03 118.262L1080.53 118.262L1080.54 118.262Z" fill="var(--fill-0, #245283)" fill-opacity="0.2"/>
<path id="Vector_7" d="M894.643 0.674932L943.493 0.674932L943.493 186.479L894.643 186.479L894.643 0.674932Z" fill="var(--fill-0, #245283)" fill-opacity="0.2"/>
<path id="Vector_8" d="M227.999 47.714C241.32 47.714 252.12 37.0328 252.12 23.857C252.12 10.6811 241.32 -6.35685e-09 227.999 0C214.678 6.35694e-09 203.879 10.6811 203.879 23.857C203.879 37.0328 214.678 47.714 227.999 47.714Z" fill="var(--fill-0, #245283)" fill-opacity="0.2"/>
<path id="Vector_9" d="M358.061 47.714C371.382 47.714 382.181 37.0328 382.181 23.857C382.181 10.6811 371.382 8.57671e-06 358.061 8.58307e-06C344.739 8.58943e-06 333.94 10.6811 333.94 23.857C333.94 37.0328 344.739 47.714 358.061 47.714Z" fill="var(--fill-0, #245283)" fill-opacity="0.2"/>
</g>
</svg>
