<svg preserveAspectRatio="none" width="100%" height="100%" overflow="visible" style="display: block;" viewBox="0 0 398.174 276" fill="none" xmlns="http://www.w3.org/2000/svg">
<g id="Group 9427">
<path id="Vector" d="M286.251 0.023122H398.174V96.9637C398.174 122.082 394.342 145.769 386.7 168.093C379.059 190.395 367.054 209.903 350.708 226.618C334.363 243.333 317.21 255.061 299.271 261.802C274.338 271.267 244.395 276 209.441 276C189.218 276 167.17 274.546 143.275 271.66C119.381 268.751 99.3877 263.025 83.3426 254.414C67.2743 245.826 52.5913 233.613 39.2703 217.776C25.9493 201.938 16.8301 185.616 11.9127 168.809C3.9709 141.775 0 117.834 0 96.9637L0 0.531029H111.924V102.989C111.924 126.168 123.883 180.006 199.214 179.152C274.546 178.298 286.227 126.538 286.227 102.989V4.80959e-05L286.251 0.023122Z" fill="var(--fill-0, #245283)" fill-opacity="0.2"/>
</g>
</svg>
