<svg width="26" height="27" viewBox="0 0 26 27" fill="none" xmlns="http://www.w3.org/2000/svg">
<path d="M18.0658 10.2149H24.7385V15.9944C24.7385 17.4919 24.51 18.9041 24.0544 20.235C23.5989 21.5646 22.8831 22.7276 21.9087 23.7241C20.9342 24.7207 19.9115 25.4199 18.8421 25.8218C17.3556 26.3861 15.5704 26.6682 13.4866 26.6682C12.2808 26.6682 10.9664 26.5815 9.54184 26.4095C8.11728 26.2361 6.92533 25.8947 5.96875 25.3813C5.01078 24.8693 4.1354 24.1412 3.34123 23.197C2.54706 22.2528 2.00338 21.2797 1.71021 20.2777C1.23674 18.6659 1 17.2386 1 15.9944V10.2452H7.67271V16.3536C7.67271 17.7355 8.38568 20.9452 12.8768 20.8943C17.368 20.8434 18.0644 17.7575 18.0644 16.3536V10.2136L18.0658 10.2149Z" fill="#F36A2E"/>
<path d="M4.21355 7.42221C5.98699 7.42221 7.42465 5.98455 7.42465 4.2111C7.42465 2.43766 5.98699 1 4.21355 1C2.4401 1 1.00244 2.43766 1.00244 4.2111C1.00244 5.98455 2.4401 7.42221 4.21355 7.42221Z" fill="#F36A2E"/>
<path d="M21.5285 7.42221C23.3019 7.42221 24.7396 5.98455 24.7396 4.2111C24.7396 2.43766 23.3019 1 21.5285 1C19.755 1 18.3174 2.43766 18.3174 4.2111C18.3174 5.98455 19.755 7.42221 21.5285 7.42221Z" fill="#F36A2E"/>
</svg>
