<svg width="305" height="376" viewBox="0 0 305 376" fill="none" xmlns="http://www.w3.org/2000/svg">
<g clip-path="url(#clip0_154_73)">
<path d="M206.989 134.983H304.735V219.644C304.735 241.58 301.388 262.266 294.714 281.763C288.041 301.239 277.556 318.276 263.282 332.874C249.007 347.471 234.027 357.713 218.361 363.601C196.586 371.867 170.435 376 139.91 376C122.248 376 102.993 374.73 82.1257 372.21C61.2579 369.669 43.7976 364.669 29.785 357.149C15.7522 349.648 2.92914 338.983 -8.70436 325.152C-20.3379 311.32 -28.3019 297.066 -32.5964 282.388C-39.5322 258.778 -43 237.87 -43 219.644L-43 135.427H54.7456L54.7456 224.906C54.7456 245.148 65.1895 292.166 130.978 291.42C196.767 290.674 206.969 245.471 206.969 224.906V134.963L206.989 134.983Z" fill="#245283" fill-opacity="0.08"/>
<path d="M4.07878 94.0761C30.0572 94.0761 51.1169 73.0165 51.1169 47.0381C51.1169 21.0597 30.0572 0 4.07878 0C-21.8996 0 -42.9593 21.0597 -42.9593 47.0381C-42.9593 73.0165 -21.8996 94.0761 4.07878 94.0761Z" fill="#245283" fill-opacity="0.08"/>
<path d="M257.717 94.0761C283.695 94.0761 304.755 73.0165 304.755 47.0381C304.755 21.0597 283.695 0 257.717 0C231.738 0 210.679 21.0597 210.679 47.0381C210.679 73.0165 231.738 94.0761 257.717 94.0761Z" fill="#245283" fill-opacity="0.08"/>
</g>
<defs>
<clipPath id="clip0_154_73">
<rect width="305" height="376" fill="white"/>
</clipPath>
</defs>
</svg>
