<svg width="219" height="240" viewBox="0 0 219 240" fill="none" xmlns="http://www.w3.org/2000/svg">
<g clip-path="url(#clip0_154_78)">
<path d="M241.017 249.989L241.017 347.735L156.356 347.735C134.42 347.735 113.734 344.388 94.2372 337.714C74.7607 331.041 57.7237 320.556 43.1264 306.282C28.5291 292.007 18.2868 277.027 12.3995 261.361C4.13302 239.586 -0.000222513 213.435 -0.000221179 182.91C-0.000220407 165.248 1.27 145.993 3.79026 125.126C6.33068 104.258 11.3309 86.7976 18.8513 72.785C26.3516 58.7522 37.0173 45.9292 50.8485 34.2957C64.6796 22.6622 78.9342 14.6981 93.6122 10.4036C117.222 3.46787 138.13 -4.49821e-06 156.356 -3.70151e-06L240.573 -2.02698e-08L240.573 97.7456L151.094 97.7456C130.851 97.7456 83.8336 108.19 84.5796 173.978C85.3256 239.767 130.529 249.969 151.094 249.969L241.037 249.969L241.017 249.989Z" fill="#245283" fill-opacity="0.08"/>
</g>
<defs>
<clipPath id="clip0_154_78">
<rect width="219" height="240" fill="white"/>
</clipPath>
</defs>
</svg>
